<?xml version="1.0"?><svg width="755.42816" height="430.48056" xmlns="http://www.w3.org/2000/svg">
 <title>burgandy yarn</title>

 <metadata id="metadata3180">image/svg+xml</metadata>
 <g>
  <title>Layer 1</title>
  <g id="layer1">
   <path fill="#bf0000" fill-rule="nonzero" stroke="#4f0000" stroke-width="9.296408" stroke-linecap="round" stroke-miterlimit="4" d="m212.423752,358.377808c22.088943,-29.783997 51.115189,-49.836731 79.627396,-65.857422c37.67807,-19.366577 77.914825,-25.483276 117.754395,-30.043701c42.459473,-5.657349 81.846375,11.801819 120.597717,33.078064c35.142212,21.310059 70.999512,39.60083 108.438416,51.638794c29.565063,9.201782 59.545654,9.930664 89.516541,5.317566c7.843811,-0.766724 15.039063,-4.760193 22.421997,-7.951721l-31.199768,32.981323c-7.035278,2.221985 -13.955872,5.154541 -21.269287,5.369141c-29.610229,2.721741 -59.14624,0.70105 -88.153992,-8.637207c-37.249512,-12.644348 -72.799011,-32.002197 -107.957458,-52.902771c-38.267151,-20.877014 -77.181335,-37.207458 -119.012634,-31.998779c-40.80426,4.70575 -81.765198,12.488342 -119.855255,34.166077c-25.754974,15.717834 27.326538,-28.166626 -13.580963,12.524841l-37.327103,22.315796z" id="path3185"/>
   <path fill="#bf0000" fill-rule="nonzero" stroke="#4f0000" stroke-width="7" stroke-linecap="round" stroke-miterlimit="4" d="m425.832855,215.241089a210.592377,210.592377 0 1 1 -421.184732,0a210.592377,210.592377 0 1 1 421.184732,0z" id="path3183"/>
   <path fill="#bf0000" stroke="#4f0000" stroke-width="7.968349" stroke-miterlimit="4" id="path3212" d="m100.466339,39.537109c0,0 72.978043,-9.637024 136.26178,-4.769043c63.283752,4.867981 116.873169,24.240967 116.873169,24.240967"/>
   <path fill="#bf0000" stroke="#4f0000" stroke-width="7.968349" stroke-miterlimit="4" id="path3216" d="m8.417274,181.151062c0,0 105.772079,-14.221924 208.884743,-7.141174c103.112656,7.080688 203.565903,35.463928 203.565903,35.463928"/>
   <path fill="#bf0000" stroke="#4f0000" stroke-width="7.968349" stroke-miterlimit="4" id="path3218" d="m26.119011,138.66687c0,0 95.157471,-16.984192 192.959602,-10.788574c97.802124,6.195618 198.248962,35.571045 198.248962,35.571045"/>
   <path fill="#bf0000" stroke="#4f0000" stroke-width="7.968349" stroke-miterlimit="4" id="path3220" d="m54.441818,87.331818c0,0 88.052277,-11.314545 173.463181,-5.118927c85.41095,6.195618 168.18045,29.901367 168.18045,29.901367"/>
   <path fill="#bf0000" stroke="#4f0000" stroke-width="7.968349" stroke-miterlimit="4" id="path3222" d="m210.217163,175.840515c0,0 9.540161,63.000916 3.344543,124.07196c-6.195587,61.070984 -28.126984,120.212097 -28.126984,120.212097"/>
   <path fill="#bf0000" stroke="#4f0000" stroke-width="7.968349" stroke-miterlimit="4" id="path3226" d="m256.241699,177.610718c0,0 12.106171,59.399048 6.353088,120.470093c-5.753052,61.070984 -29.365356,123.813965 -29.365356,123.813965"/>
   <path fill="#bf0000" stroke="#4f0000" stroke-width="7.968349" stroke-miterlimit="4" id="path3228" d="m302.266235,182.921265c0,0 13.124878,54.089844 8.256897,111.620544c-4.86795,57.53064 -27.728821,118.502136 -27.728821,118.502136"/>
   <path fill="#bf0000" stroke="#4f0000" stroke-width="7.968349" stroke-miterlimit="4" id="path3230" d="m350.060944,191.772095c0,0 10.431183,37.641235 5.563202,86.76355c-4.867981,49.122375 -25.035126,109.72583 -25.035126,109.72583"/>
   <path fill="#bf0000" stroke="#4f0000" stroke-width="7.968349" stroke-miterlimit="4" id="path3232" d="m390.774963,204.16333c0,0 7.83136,31.085144 4.733582,65.603516c-3.097839,34.518433 -17.124786,72.470093 -17.124786,72.470093"/>
   <path fill="#bf0000" stroke="#4f0000" stroke-width="7.968349" stroke-miterlimit="4" id="path3238" d="m160.220993,172.552551c0,0 9.290024,18.22583 22.807785,34.115112c13.517731,15.889282 31.263153,29.441956 31.263153,29.441956"/>
   <path fill="#bf0000" stroke="#4f0000" stroke-width="7.968349" stroke-miterlimit="4" id="path3240" d="m118.482025,172.552551c0,0 18.909271,38.279236 42.861755,68.160522c23.952469,29.881287 52.948151,51.364746 52.948151,51.364746"/>
   <path fill="#bf0000" stroke="#4f0000" stroke-width="7.968349" stroke-miterlimit="4" id="path3242" d="m78.640274,174.449768c0,0 31.847221,55.020752 63.862915,96.522583c32.015686,41.501831 64.199844,69.48468 64.199844,69.48468"/>
   <path fill="#bf0000" stroke="#4f0000" stroke-width="7.968349" stroke-miterlimit="4" id="path3244" d="m42.592987,177.295593c0,0 35.176865,63.971436 74.070007,114.722229c38.893127,50.750793 81.502518,88.280945 81.502518,88.280945"/>
   <path fill="#bf0000" stroke="#4f0000" stroke-width="7.968349" stroke-miterlimit="4" id="path3246" d="m9.391533,191.524841c0,0 35.251549,68.670471 78.887749,125.824402c43.6362,57.153992 95.657028,102.791321 95.657028,102.791321"/>
   <path fill="#bf0000" stroke="#4f0000" stroke-width="7.968349" stroke-miterlimit="4" id="path3248" d="m5.597076,243.698547c0,0 28.177628,52.357178 63.039169,95.281921c34.861511,42.924744 76.406937,76.417053 76.406937,76.417053"/>
  </g>
 </g>
</svg>